<svg width="82" height="27" viewBox="0 0 82 27" fill="none" xmlns="http://www.w3.org/2000/svg">
<path d="M35.0271 0H38.0664V11.0901H35.0271V6.79286H29.5448V11.0901H26.5055V0H29.5448V4.01966H35.0271V0ZM22.8561 2.77321L24.4503 0H13.2256V11.0901H24.1602V8.3169H16.265V6.65407H21.0748V4.15845H16.265V2.77321H22.8588H22.8561ZM7.92508 2.94194L9.61692 0H0V2.77321H5.15144L3.5572 5.54642H6.96257C7.96303 5.54642 8.52969 6.16964 8.52969 6.93166C8.52969 7.69368 7.96303 8.3169 6.96257 8.3169H0V11.0901H6.96257C9.65487 11.0901 11.5663 9.22588 11.5663 6.93166C11.5663 4.93136 10.1049 3.33656 7.92508 2.94194ZM54.4588 0V2.77321H58.7209V11.0901H61.7603V2.77321H65.4829L67.0771 0H54.4588ZM49.8605 0L44.0041 6.52888V0H40.9648V11.0901H43.6299L49.6246 4.40611V11.0901H52.6639V0H49.8605ZM8.94723 21.1515L12.3119 27H8.9635L6.49081 22.7028H3.03935V27H0V15.9099H3.03935V19.9295H6.46098L8.77371 15.9099H11.9622L8.94723 21.1515ZM25.3884 15.9099V27H22.3491V24.2268H16.8669V27H13.8275V21.4862C13.8275 19.2655 14.34 18.264 15.3242 17.2734C16.0942 16.5005 17.3386 15.9099 19.467 15.9099H25.3884ZM22.3491 21.4536V18.6804H19.0793C18.2713 18.6804 17.7399 18.9471 17.382 19.339C17.0241 19.7336 16.8642 20.2398 16.8642 21.0862V21.4536H22.3464H22.3491ZM35.9353 18.8491L37.6272 15.9099H28.0103V18.6831H33.1617L31.5675 21.4563H34.9728C35.9733 21.4563 36.5399 22.0795 36.5399 22.8415C36.5399 23.6036 35.9733 24.2268 34.9728 24.2268H28.0103V27H34.9728C37.6651 27 39.5766 25.1358 39.5766 22.8415C39.5766 20.8412 38.1152 19.2464 35.9353 18.8518V18.8491ZM52.7941 15.9099V27H49.7547V24.2268H44.2725V27H41.2332V21.4862C41.2332 19.2655 41.7456 18.264 42.7298 17.2734C43.4998 16.5005 44.7443 15.9099 46.8726 15.9099H52.7941ZM49.7547 21.4536V18.6804H46.4849C45.677 18.6804 45.1456 18.9471 44.7877 19.339C44.4298 19.7336 44.2698 20.2398 44.2698 21.0862V21.4536H49.752H49.7547ZM81.9946 22.8388C81.9946 25.1331 80.0831 26.9973 77.3908 26.9973H70.1517V15.9099H73.1911V18.6831H77.3908C80.1374 18.6831 81.9946 20.5473 81.9946 22.8415V22.8388ZM78.9552 22.8388C78.9552 22.0741 78.3886 21.4536 77.3881 21.4536H73.1883V24.2268H77.3881C78.3886 24.2268 78.9552 23.6036 78.9552 22.8415V22.8388ZM64.2113 19.9268H58.7291V15.9072H55.6897V26.9973H58.7291V22.7H64.2113V26.9973H67.2506V15.9099H64.2113V19.9295V19.9268Z" fill="white"/>
</svg>
