<svg width="38" height="38" viewBox="0 0 38 38" fill="none" xmlns="http://www.w3.org/2000/svg">
<g clip-path="url(#clip0_12_169)">
<path d="M5.52528 14.3572C12.5006 8.83196 22.6329 9.52681 28.7793 16.0977L18.1331 22.2441C23.4596 23.3925 29.2038 21.8084 33.1874 17.6729C32.5194 10.425 26.4222 4.75 19 4.75C12.7575 4.75 7.44897 8.76717 5.52528 14.3572ZM32.477 23.645C25.5016 29.1703 15.3694 28.4754 9.22295 21.9045L19.8691 15.7581C14.5427 14.6097 8.79845 16.1938 4.81479 20.3294C5.48283 27.5773 11.5801 33.2522 19.0022 33.2522C25.2447 33.2522 30.5533 29.2351 32.477 23.645ZM38.0022 19.0022C38.0022 29.4965 29.4965 38.0022 19.0022 38.0022C8.508 38.0022 0 29.4942 0 19C0 8.50576 8.50576 0 19 0C29.4942 0 38 8.50576 38 19L38.0022 19.0022Z" fill="white"/>
</g>
<defs>
<clipPath id="clip0_12_169">
<rect width="38" height="38" fill="white"/>
</clipPath>
</defs>
</svg>
