<svg width="12" height="19" viewBox="0 0 12 19" fill="none" xmlns="http://www.w3.org/2000/svg">
<path d="M11.1001 10.8C11.0001 11.1 11.0001 11.1 10.8001 11.3C10.7001 11.4 10.7001 11.5 10.4001 11.7C10.1001 11.9 9.1001 12.3 7.5001 13L10.0001 16C10.2001 16.2 10.4001 16.5 10.4001 16.9C10.4001 17.5 9.9001 18 9.3001 18.1C9.0001 18.1 8.7001 17.9 8.4001 17.7L5.8001 14.6L3.2001 17.5C3.0001 17.8 2.7001 17.9 2.4001 17.9C2.1001 17.9 1.8001 17.8 1.6001 17.6C1.3001 17.4 1.2001 17 1.3001 16.7C1.4001 16.4 1.5001 16.1 1.7001 15.9L4.1001 12.9C3.1001 12.5 2.1001 12.1 1.2001 11.6C1.1001 11.5 0.900097 11.4 0.800097 11.3C0.700097 11.1 0.600098 10.9 0.600098 10.7C0.600098 10.4 0.700097 10.1 0.900097 9.89999C1.1001 9.69999 1.4001 9.59999 1.7001 9.59999C2.2001 9.7 2.7001 9.89999 3.1001 10.2C3.9001 10.6 4.8001 10.8 5.7001 10.8C6.6001 10.8 7.5001 10.7 8.3001 10.2C8.7001 9.89999 9.2001 9.7 9.7001 9.59999C10.3001 9.59999 10.8001 10.1 10.9001 10.8H11.1001ZM5.8001 8.89999C5.3001 8.89999 4.7001 8.79999 4.2001 8.59999C3.7001 8.39999 3.3001 8.09999 2.9001 7.69999C2.5001 7.29999 2.2001 6.89999 2.0001 6.39999C1.8001 5.89999 1.7001 5.39999 1.7001 4.79999C1.7001 4.29999 1.8001 3.69999 2.0001 3.19999C2.3001 2.79999 2.6001 2.29999 3.0001 1.99999C3.4001 1.59999 3.8001 1.29999 4.3001 1.19999C4.8001 0.999994 5.3001 0.899994 5.9001 0.899994C6.4001 0.899994 7.0001 0.999994 7.5001 1.19999C8.5001 1.59999 9.2001 2.39999 9.6001 3.29999C9.8001 3.79999 9.9001 4.29999 9.9001 4.89999C9.9001 5.39999 9.8001 5.99999 9.6001 6.49999C9.2001 7.49999 8.4001 8.19999 7.5001 8.59999C6.9001 8.79999 6.4001 8.89999 5.8001 8.89999ZM4.4001 3.39999C3.6001 4.19999 3.6001 5.39999 4.4001 6.19999C4.8001 6.59999 5.3001 6.79999 5.8001 6.79999C6.3001 6.79999 6.9001 6.59999 7.2001 6.19999C7.6001 5.79999 7.8001 5.29999 7.8001 4.79999C7.8001 4.29999 7.6001 3.69999 7.2001 3.39999C6.8001 2.99999 6.3001 2.79999 5.8001 2.79999C5.3001 2.79999 4.8001 2.99999 4.4001 3.39999Z" fill="#CCD2E3"/>
</svg>
