<svg width="14" height="11" viewBox="0 0 14 11" fill="none" xmlns="http://www.w3.org/2000/svg">
<path d="M12.5999 0.399994C12.9999 0.399994 13.1999 0.799994 13.0999 1.29999L11.0999 10.3C10.9999 10.9 10.4999 11 9.99988 10.6L7.19988 8.59999L5.69988 10.1C5.49988 10.3 4.99988 10.4 4.89988 9.99999L3.79988 6.49999L0.999884 5.59999C-0.000115514 5.29999 0.699884 4.79999 1.09988 4.69999L12.0999 0.499994C12.2999 0.399994 12.4999 0.399994 12.5999 0.399994ZM10.6999 2.29999C10.5999 2.29999 10.5999 2.29999 10.4999 2.39999L4.29988 6.29999C4.29988 6.29999 4.19988 6.29999 4.29988 6.39999L5.29988 9.39999L5.49988 7.29999C5.49988 7.29999 5.49989 7.19999 5.59988 7.19999L10.7999 2.59999C10.9999 2.29999 10.8999 2.19999 10.6999 2.29999Z" fill="#CCD2E3"/>
</svg>
