<svg width="13" height="13" viewBox="0 0 13 13" fill="none" xmlns="http://www.w3.org/2000/svg">
<path d="M12.2001 5.3C11.0001 5.3 9.90009 4.9 9.00009 4.3V8.7C9.00009 9.5 8.70009 10.3 8.30009 11C7.80009 11.7 7.20009 12.2 6.40009 12.5C5.60009 12.8 4.80009 12.8 4.00009 12.6C3.20009 12.4 2.50009 12 2.00009 11.3C1.50009 10.7 1.10009 9.9 1.00009 9.1C0.900093 8.3 1.10009 7.5 1.50009 6.7C1.90009 6 2.50009 5.4 3.20009 5C3.90009 4.6 4.80009 4.5 5.60009 4.6V6.8C5.20009 6.7 4.80009 6.7 4.40009 6.8C4.00009 6.9 3.70009 7.2 3.50009 7.5C3.30009 7.8 3.20009 8.2 3.20009 8.6C3.20009 9 3.30009 9.4 3.60009 9.7C3.80009 10 4.20009 10.3 4.60009 10.4C5.00009 10.5 5.40009 10.5 5.80009 10.4C6.20009 10.3 6.50009 10 6.70009 9.7C6.90009 9.4 7.10009 9 7.10009 8.6V0H9.30009C9.30009 0.4 9.40009 0.8 9.50009 1.2C9.70009 1.6 9.90009 1.9 10.2001 2.2C10.5001 2.5 10.8001 2.7 11.2001 2.9C11.6001 3.1 12.0001 3.1 12.4001 3.1L12.2001 5.3Z" fill="#CCD2E3"/>
</svg>
