<svg width="16" height="13" viewBox="0 0 16 13" fill="none" xmlns="http://www.w3.org/2000/svg">
<path d="M14.2 3.3C14.2 3.4 14.2 3.6 14.2 3.7C14.2 7.9 11 12.8 5.09995 12.8C3.39995 12.8 1.69995 12.3 0.199951 11.4C0.499951 11.4 0.699951 11.4 0.999951 11.4C2.39995 11.4 3.79995 10.9 4.99995 10C3.59995 10 2.39995 9.1 1.99995 7.8C2.49995 7.9 2.99995 7.9 3.39995 7.7C1.89995 7.4 0.799952 6.1 0.799952 4.6C1.29995 4.9 1.79995 5 2.29995 5C0.899952 4.1 0.499952 2.2 1.29995 0.699996C2.89995 2.7 5.29995 3.9 7.89995 4C7.59995 3 7.99995 1.8 8.79995 0.999996C10.1 -0.200004 12.1 -0.200003 13.3 1.1C14 0.999997 14.7 0.699997 15.3 0.299997C15.1 0.999997 14.6 1.7 13.9 2.1C14.5 2 15.2 1.9 15.7 1.6C15.4 2.3 14.8 2.9 14.2 3.3Z" fill="#CCD2E3"/>
</svg>
