<svg width="24" height="24" viewBox="0 0 24 24" fill="none" xmlns="http://www.w3.org/2000/svg">
<g clip-path="url(#clip0_12_152)">
<path fill-rule="evenodd" clip-rule="evenodd" d="M12 22C6.475 22 2 17.525 2 12C2 6.475 6.475 2 12 2C17.525 2 22 6.475 22 12C22 17.525 17.525 22 12 22ZM4.575 11.3125C4.5375 11.5375 4.5125 11.7625 4.5 12C4.5 14.2375 5.5125 16.35 7.25 17.7625L8.25 15.75L7 14.5L6.175 12L4.575 11.3125ZM17.5375 7H14.5V5.75L14.8375 5.0875C13.5375 4.525 12.1 4.3625 10.7125 4.6375L9.5 8.25L7 9.5L7.425 11.5875L9.5 10.75L12 12V14.5L9.7 19.1C10.4375 19.35 11.2125 19.4875 12 19.5C13.85 19.5 15.6375 18.8 17 17.55V14.5L14.5 13.25V10.75L15.75 9.5H19.0375C18.7125 8.575 18.2 7.725 17.5375 7Z" fill="#CCD2E3"/>
</g>
<defs>
<clipPath id="clip0_12_152">
<rect width="20" height="20" fill="white" transform="translate(2 2)"/>
</clipPath>
</defs>
</svg>
