<svg width="14" height="10" viewBox="0 0 14 10" fill="none" xmlns="http://www.w3.org/2000/svg">
<path fill-rule="evenodd" clip-rule="evenodd" d="M13 2.00001C12.9 1.50001 12.4 1.00001 11.9 0.900005C10.9 0.600005 6.99995 0.600006 6.99995 0.600006C6.99995 0.600006 3.09995 0.600005 2.09995 0.900005C1.59995 1.00001 1.19995 1.50001 0.999951 2.00001C0.699951 3.00001 0.699951 5.00001 0.699951 5.00001C0.699951 5.00001 0.699951 7.00001 0.999951 8.00001C1.09995 8.50001 1.59995 9.00001 2.09995 9.10001C3.09995 9.40001 6.99995 9.40001 6.99995 9.40001C6.99995 9.40001 10.9 9.40001 11.9 9.10001C12.4 9.00001 12.9 8.50001 13 8.00001C13.3 7.00001 13.3 5.00001 13.3 5.00001C13.3 5.00001 13.2 3.00001 13 2.00001ZM5.79995 6.90001V3.10001L8.99995 5.00001L5.79995 6.90001Z" fill="#CCD2E3"/>
</svg>
